<svg xmlns="http://www.w3.org/2000/svg" viewBox="0 0 94.93 34.4125" x="0px" y="0px"><title>Dry Van Trailer</title><g data-name="Layer 2"><g data-name="Trailer: Dry Van"><path d="M66.43,19.92s0-.33,0-.74V.74A.71.71,0,0,0,65.75,0H.68A.71.71,0,0,0,0,.74V19.92Z"/><path d="M90.36,20.43A3.55,3.55,0,1,0,93.91,24,3.55,3.55,0,0,0,90.36,20.43Zm0,5.43A1.88,1.88,0,1,1,92.24,24,1.88,1.88,0,0,1,90.36,25.86Z"/><path d="M67.79,21.93h2.34V20.64H66A3.85,3.85,0,0,1,67.79,21.93Z"/><path d="M63.58,20.64h-5a3.85,3.85,0,0,1,1.84,1.29h1.34A3.85,3.85,0,0,1,63.58,20.64Z"/><path d="M93.92,18c-.42-.7-5.68-1.41-8.13-1.7a41.75,41.75,0,0,0-.33-5.74c-.52-1-14.53-6.24-14.75-5.69s0,20.44,0,20.44l13-1.7-.13,1.22,2.47-.44a4.26,4.26,0,0,1,8.37-1.5l.5-.09S94.53,19,93.92,18Z"/><path d="M64.77,21A3.24,3.24,0,1,0,68,24.29,3.24,3.24,0,0,0,64.77,21Zm0,4.81a1.57,1.57,0,1,1,1.57-1.57A1.57,1.57,0,0,1,64.77,25.86Z"/><path d="M56.19,20.64H51.78v.58l2.57.72A3.85,3.85,0,0,1,56.19,20.64Z"/><path d="M57.37,21a3.24,3.24,0,1,0,3.24,3.24A3.24,3.24,0,0,0,57.37,21Zm0,4.81a1.57,1.57,0,1,1,1.57-1.57A1.57,1.57,0,0,1,57.37,25.86Z"/><path d="M20.2,21.93l6.15-.72v-.58h-8A3.85,3.85,0,0,1,20.2,21.93Z"/><path d="M16,20.64H11a3.85,3.85,0,0,1,1.84,1.29h1.34A3.85,3.85,0,0,1,16,20.64Z"/><path d="M17.17,21a3.24,3.24,0,1,0,3.24,3.24A3.24,3.24,0,0,0,17.17,21Zm0,4.81a1.57,1.57,0,1,1,1.57-1.57A1.57,1.57,0,0,1,17.17,25.86Z"/><path d="M8.59,20.64H0l.6,1.29H6.75A3.85,3.85,0,0,1,8.59,20.64Z"/><path d="M9.77,21A3.24,3.24,0,1,0,13,24.29,3.24,3.24,0,0,0,9.77,21Zm0,4.81a1.57,1.57,0,1,1,1.57-1.57A1.57,1.57,0,0,1,9.77,25.86Z"/></g></g><text x="0" y="42.53" fill="#000000" font-size="5px" font-weight="bold" font-family="'Helvetica Neue', Helvetica, Arial-Unicode, Arial, Sans-serif">Created by Ghalib Mansoor</text><text x="0" y="47.53" fill="#000000" font-size="5px" font-weight="bold" font-family="'Helvetica Neue', Helvetica, Arial-Unicode, Arial, Sans-serif">from the Noun Project</text></svg>