<?xml version="1.0" encoding="utf-8"?>
<!-- Generator: Adobe Illustrator 25.4.1, SVG Export Plug-In . SVG Version: 6.00 Build 0)  -->
<svg version="1.1" id="Layer_1" xmlns="http://www.w3.org/2000/svg" xmlns:xlink="http://www.w3.org/1999/xlink" x="0px" y="0px"
	 viewBox="0 0 1920 1080" style="enable-background:new 0 0 1920 1080;" xml:space="preserve">
<style type="text/css">
	.st0{fill:none;}
	.st1{fill:url(#SVGID_1_);}
	.st2{fill:url(#SVGID_00000017490233016486581090000011953861357042266523_);}
	.st3{fill:url(#SVGID_00000053547550305212993560000014339222606799261841_);}
	.st4{fill:url(#SVGID_00000100361349816224829350000006031838762093954186_);}
	.st5{fill:url(#SVGID_00000109032062959355539950000012552332445228790177_);}
	.st6{fill:url(#SVGID_00000160909916131317642660000001225931547731314345_);}
	.st7{fill:url(#SVGID_00000132072907164939893000000002193328480803575442_);}
	.st8{fill:url(#SVGID_00000130624451445612464080000004998438124052226699_);}
	.st9{fill:url(#SVGID_00000031899249665289303230000018080051841851825329_);}
	.st10{fill:url(#SVGID_00000158750216440068425150000009711374310526187963_);}
	.st11{fill:url(#SVGID_00000119102596869906971680000007395922723831328928_);}
	.st12{fill:url(#SVGID_00000158007496319161721740000014099004287101369510_);}
	.st13{fill:#FFFFFF;}
	.st14{fill:url(#SVGID_00000160157180991900856320000000445122247853327764_);}
</style>
<rect width="1920" height="1080" fill="#7860ff"/>
<g>
	<g>
		<path class="st0" d="M534,733.9c-4.4-2.4-10.1-4.1-17.2-4.9c-7.1-0.8-15.8-1.3-26-1.3s-18.9,0.4-26,1.3
			c-7.1,0.9-12.8,2.5-17.2,4.9c-4.4,2.4-7.6,5.9-9.5,10.2c-2,4.4-3,10.2-3,17.2s1,12.8,3,17.2c2,4.4,5.1,7.9,9.5,10.3
			c4.4,2.5,10.2,4.2,17.2,5c7.1,0.8,15.7,1.3,26,1.3s18.9-0.4,26-1.3c7.1-0.9,12.8-2.5,17.2-5c4.4-2.5,7.6-5.9,9.6-10.3
			c2-4.4,2.9-10.1,2.9-17.2s-1-12.8-2.9-17.2C541.6,739.8,538.4,736.3,534,733.9z"/>
		<g>
			<linearGradient id="SVGID_1_" gradientUnits="userSpaceOnUse" x1="296.3904" y1="680.9042" x2="294.2476" y2="843.7607">
				<stop  offset="0" style="stop-color:#ED1C24"/>
				<stop  offset="1" style="stop-color:#F7941D"/>
			</linearGradient>
			<path class="st1" d="M242.2,792.5h62.6l29.3,34.9h54.6l-24.2-25.6c-4.6-4.6-8.3-8.2-11-10.8c-2.8-2.6-5.2-4.8-7.5-6.5
				c5.4-1,10.2-2.8,14.5-5.4c4.3-2.6,7.9-5.7,10.8-9.4c2.9-3.7,5.2-7.8,6.8-12.4c1.6-4.6,2.4-9.5,2.4-14.6c0-9.4-2.1-17.2-6.4-23.2
				c-4.3-6-9.7-10.8-16.2-14.4c-6.6-3.5-13.9-6-21.9-7.4c-8-1.4-15.7-2.1-23.2-2.1H228l-26.6,34.3h114.6c7.1,0,12.6,1.3,16.6,3.8
				c3.9,2.6,5.9,6.4,5.9,11.5c0,4.6-2.2,8.2-6.5,10.8c-4.3,2.6-9.7,3.9-16,3.9H201.5v67.4h40.8V792.5z"/>
		</g>
		<g>
			
				<linearGradient id="SVGID_00000141421162593283031240000006788552770291389584_" gradientUnits="userSpaceOnUse" x1="491.791" y1="683.4727" x2="489.648" y2="846.3354">
				<stop  offset="0" style="stop-color:#ED1C24"/>
				<stop  offset="1" style="stop-color:#F7941D"/>
			</linearGradient>
			<path style="fill:url(#SVGID_00000141421162593283031240000006788552770291389584_);" d="M563,709.8
				c-16.1-10.9-40.1-16.4-72.2-16.4c-32.2,0-56.3,5.5-72.3,16.4c-16,10.9-24,28.1-24,51.6c0,23.6,8,40.9,23.9,51.8
				c16,10.9,40.1,16.4,72.4,16.4c32.2,0,56.3-5.5,72.3-16.4c16-10.9,24-28.2,24-51.8C587.1,737.9,579,720.7,563,709.8z M543.6,778.6
				c-2,4.4-5.2,7.9-9.6,10.3c-4.4,2.5-10.1,4.2-17.2,5c-7.1,0.8-15.8,1.3-26,1.3s-18.9-0.4-26-1.3c-7.1-0.9-12.8-2.5-17.2-5
				c-4.4-2.5-7.6-5.9-9.5-10.3c-2-4.4-3-10.1-3-17.2s1-12.8,3-17.2c2-4.4,5.1-7.8,9.5-10.2c4.4-2.4,10.2-4.1,17.2-4.9
				c7.1-0.8,15.7-1.3,26-1.3s18.9,0.4,26,1.3c7.1,0.9,12.8,2.5,17.2,4.9c4.4,2.4,7.6,5.9,9.6,10.2c2,4.4,2.9,10.2,2.9,17.2
				S545.5,774.2,543.6,778.6z"/>
		</g>
		<g>
			
				<linearGradient id="SVGID_00000070080096289682354980000002220519269987765121_" gradientUnits="userSpaceOnUse" x1="688.4921" y1="686.0613" x2="686.3492" y2="848.921">
				<stop  offset="0" style="stop-color:#ED1C24"/>
				<stop  offset="1" style="stop-color:#F7941D"/>
			</linearGradient>
			<path style="fill:url(#SVGID_00000070080096289682354980000002220519269987765121_);" d="M667.6,793.5L643,827.4h153.2
				l-82.3-119.2c-2.9-4.2-6.4-7.7-10.5-10.5c-4.1-2.8-9.3-4.3-15.5-4.3c-6.4,0-11.8,1.5-15.9,4.5c-4.2,3-7.7,6.4-10.4,10.2
				L577,827.4h48.3l61.8-87.5l23.6,34.9c2.2,3.2,4.6,6.6,7,10.2c2.4,3.6,4.6,6.6,6.4,9c-3.1-0.3-6.9-0.4-11.1-0.4H667.6z"/>
		</g>
		<g>
			
				<linearGradient id="SVGID_00000093179164079867098870000001317797944119451824_" gradientUnits="userSpaceOnUse" x1="895.3574" y1="688.7861" x2="893.2146" y2="851.6427">
				<stop  offset="0" style="stop-color:#ED1C24"/>
				<stop  offset="1" style="stop-color:#F7941D"/>
			</linearGradient>
			<path style="fill:url(#SVGID_00000093179164079867098870000001317797944119451824_);" d="M978.4,760.2c0-9.5-2-18.2-5.9-26.1
				c-3.9-7.9-9.4-14.8-16.5-20.5c-7-5.7-15.4-10.2-25.1-13.3c-9.7-3.1-20.4-4.7-31.9-4.7h-62.2l-26,34.3H899
				c5.5,0,10.6,0.8,15.4,2.5c4.7,1.6,8.9,3.9,12.4,6.7c3.6,2.8,6.3,6.2,8.3,10.2c2,3.9,3,8.2,3,12.8c0,4.7-1,9-3,12.9
				c-2,3.9-4.6,7.2-8.1,9.9c-3.4,2.8-7.5,4.9-12.3,6.4c-4.8,1.5-10,2.3-15.7,2.3h-47.3v-48.3h-41v82.1H899c11.4,0,22-1.7,31.7-5.1
				c9.7-3.4,18.1-8.1,25.1-14.1c7-6,12.5-13.1,16.5-21.3C976.4,778.7,978.4,769.8,978.4,760.2z"/>
		</g>
		<g>
			
				<linearGradient id="SVGID_00000150790046064450059780000012144428797743884944_" gradientUnits="userSpaceOnUse" x1="1081.9369" y1="691.2386" x2="1079.7941" y2="854.0983">
				<stop  offset="0" style="stop-color:#ED1C24"/>
				<stop  offset="1" style="stop-color:#F7941D"/>
			</linearGradient>
			<path style="fill:url(#SVGID_00000150790046064450059780000012144428797743884944_);" d="M1080.6,739.9l23.6,34.9
				c2.2,3.2,4.6,6.6,7,10.2c2.4,3.6,4.6,6.6,6.4,9c-3.2-0.3-6.9-0.4-11.1-0.4h-45.4l-24.6,33.9h153.2l-82.3-119.2
				c-2.9-4.2-6.4-7.7-10.5-10.5c-4.1-2.8-9.3-4.3-15.5-4.3c-6.4,0-11.8,1.5-16,4.5c-4.2,3-7.7,6.4-10.4,10.2l-84.5,119.2h48.2
				L1080.6,739.9z"/>
		</g>
		<g>
			
				<linearGradient id="SVGID_00000031911481729275340290000013355451542785378706_" gradientUnits="userSpaceOnUse" x1="1296.6704" y1="694.0669" x2="1294.5275" y2="856.9236">
				<stop  offset="0" style="stop-color:#ED1C24"/>
				<stop  offset="1" style="stop-color:#F7941D"/>
			</linearGradient>
			<path style="fill:url(#SVGID_00000031911481729275340290000013355451542785378706_);" d="M1352.4,787.8c-5.4-5-9.8-9.1-13.4-12.4
				c-3.5-3.3-6.5-6-8.9-8.2s-4.3-3.8-5.7-5c-1.4-1.2-2.8-2.2-3.9-2.9c1.2-0.9,2.5-2,4-3.3c1.5-1.2,3.4-2.8,5.6-4.7
				c2.2-1.9,4.9-4.3,8.1-7.1c3.1-2.8,7-6.3,11.6-10.5l41.6-38h-52.8l-42.3,41l-41.9-41h-56.5l40.4,37.8c5.1,4.9,9.4,8.8,12.8,11.9
				c3.4,3.1,6.2,5.6,8.5,7.7s4.1,3.6,5.5,4.7c1.5,1.1,2.8,2.1,3.9,3.1c-1.2,0.9-2.5,2-4,3.1c-1.5,1.2-3.4,2.8-5.6,4.7
				c-2.2,2-5.1,4.5-8.5,7.6c-3.4,3.1-7.6,6.9-12.6,11.5l-42.9,39.6h50.6l46.3-43.5l44.9,43.5h57.5L1352.4,787.8z"/>
		</g>
		<g>
			
				<linearGradient id="SVGID_00000129915298891554894590000008571219671747674756_" gradientUnits="userSpaceOnUse" x1="1481.1776" y1="696.4949" x2="1479.0348" y2="859.3515">
				<stop  offset="0" style="stop-color:#ED1C24"/>
				<stop  offset="1" style="stop-color:#F7941D"/>
			</linearGradient>
			<polygon style="fill:url(#SVGID_00000129915298891554894590000008571219671747674756_);" points="1551.9,793.5 1449.9,793.5 
				1449.9,695.6 1409.2,695.6 1409.2,827.4 1525.5,827.4 			"/>
		</g>
		<g>
			
				<linearGradient id="SVGID_00000103229877990790598440000010963151621455394733_" gradientUnits="userSpaceOnUse" x1="1642.637" y1="698.6196" x2="1640.4941" y2="861.4763">
				<stop  offset="0" style="stop-color:#ED1C24"/>
				<stop  offset="1" style="stop-color:#F7941D"/>
			</linearGradient>
			<polygon style="fill:url(#SVGID_00000103229877990790598440000010963151621455394733_);" points="1718.5,793.5 1606.5,793.5 
				1606.5,775.6 1687.4,775.6 1710.9,745.6 1606.5,745.6 1606.5,729.9 1691.8,729.9 1718.2,695.6 1565.5,695.6 1565.5,827.4 
				1692.4,827.4 			"/>
		</g>
		<g>
			
				<linearGradient id="SVGID_00000069356145370505467400000008627285299109977254_" gradientUnits="userSpaceOnUse" x1="1235.4948" y1="468.8831" x2="1235.4985" y2="469.3951">
				<stop  offset="0" style="stop-color:#ED1C24"/>
				<stop  offset="1" style="stop-color:#F7941D"/>
			</linearGradient>
			<path style="fill:url(#SVGID_00000069356145370505467400000008627285299109977254_);" d="M1236.2,469.3c-0.1-0.1-0.2-0.3-0.3-0.4
				C1234.6,469.1,1234.3,469.2,1236.2,469.3z"/>
		</g>
		<g>
			
				<linearGradient id="SVGID_00000144316462406866057920000014191816631196791199_" gradientUnits="userSpaceOnUse" x1="906.2108" y1="152.6994" x2="909.5018" y2="590.3973">
				<stop  offset="0" style="stop-color:#ED1C24"/>
				<stop  offset="1" style="stop-color:#F7941D"/>
			</linearGradient>
			<path style="fill:white" d="M1300.3,384l-89.9-130.1
				c-7.3-10.6-16.1-19.4-26.5-26.5c-10.4-7.1-23.4-10.7-38.9-10.7c-16.2,0-29.6,3.8-40.1,11.4s-19.3,16.2-26.3,25.8l-184.4,260l0,0
				L808,442.2c26.3,0.8,56.5,3.9,82.6-5.7c15.5-5.7,28.8-15.7,39-28.3c7.5-9.2,13.4-19.8,17.2-31.1c4-11.6,5.9-23.8,5.9-36.7
				c0-23.8-5.4-43.3-16.1-58.5c-10.7-15.2-24.4-27.2-40.9-36.2c-16.5-8.9-34.9-15.1-55-18.6c-20.2-3.5-39.7-5.2-58.5-5.2h-213
				l-1.5,2l-65.4,84.3h288.4c17.8,0,31.7,3.2,41.6,9.7c9.9,6.4,14.9,16.1,14.9,29c0,11.6-5.5,20.6-16.4,27.2
				c-10.9,6.6-24.3,9.9-40.1,9.9H502.5v92.1c10.8,9.4,22.6,17.5,35.3,24.3c22.8,12.2,44.9,18.6,67.3,19.5v-54.1H720l102.4,87.7H942
				l0,0h45.4l155.6-220l59.5,87.7c5.6,7.9,11.5,16.4,17.6,25.5c3.1,4.6,5.9,8.7,8.6,12.5c2.6,3.6,5,6.8,7.2,9.7c0.1,0,0.2,0,0.3,0
				l2.2,3.3c3.6-2.5,7.3-5.1,10.8-7.7c8.1-6,16.1-12.2,23.8-18.7c13.4-11.3,26.2-23.3,37.4-36.9c1.3-1.6,2.5-3.1,3.8-4.7L1300.3,384
				z"/>
		</g>
		
			<linearGradient id="SVGID_00000074432455295544109410000015824228176962010273_" gradientUnits="userSpaceOnUse" x1="195.4255" y1="932.5444" x2="488.2565" y2="932.5444">
			<stop  offset="0" style="stop-color:#ED1C24"/>
			<stop  offset="1" style="stop-color:#F7941D"/>
		</linearGradient>
		<polygon style="fill:url(#SVGID_00000074432455295544109410000015824228176962010273_);" points="488.3,940.9 488.3,924.2 
			195.4,932.5 		"/>
		
			<linearGradient id="SVGID_00000088118134856813654510000011525395872304321939_" gradientUnits="userSpaceOnUse" x1="1431.7435" y1="932.5444" x2="1724.5743" y2="932.5444">
			<stop  offset="0" style="stop-color:#ED1C24"/>
			<stop  offset="1" style="stop-color:#F7941D"/>
		</linearGradient>
		<polygon style="fill:url(#SVGID_00000088118134856813654510000011525395872304321939_);" points="1431.7,940.9 1724.6,932.5 
			1431.7,924.2 		"/>
		<path class="st13" d="M1273.1,445.8c-7.7,6.5-15.7,12.7-23.8,18.7c-3.6,2.6-7.2,5.2-10.8,7.7c-12.5,8.7-25.3,16.8-38.3,24.6
			c-20.5,12.2-41.5,23.5-62.4,35c-12.8,7.1-25.7,13.9-38.9,20.4c-11.4,5.6-22.9,11-34.9,15.2c-0.5,0.2-1,0.3-1.5,0.6
			c-0.6,0.3-1.4,0.6-1.3,1.5c0.2,0.9,1,1,1.7,1c2.6,0,5.1-0.3,7.7-0.3c52.6,0,105.2,0,157.9,0c3.1,0,5.4-1,7.8-2.8
			c12.4-9.4,24.5-19.4,36.2-29.6c5.6-4.9,11.2-9.9,16.6-15.1c8.7-8.2,17.1-16.6,25.3-25.4c8.4-9,16.4-18.2,23.9-27.9
			c9.7-12.7,18.6-25.7,25.9-39.7c5.5-10.5,10-21.5,13.1-33.3c5.5-20.6,5.2-40.9-3.3-60.7c-4-9.2-9.4-17.4-16.1-24.9
			c-7.8-8.7-16.8-16.3-26.5-22.8c-9.1-6.1-19.2-10.2-29.3-13.8c-12-4.3-24.3-7.9-36.6-11.1c-1.4-0.4-2.9-0.5-4.7-0.9
			c0.5,1.9,1.7,2.3,2.7,2.7c16.4,6.9,32.1,15.1,46,26.4c10.7,8.7,19.7,18.9,25,31.9c5.6,13.8,5.5,27.9,1.2,42
			c-1.6,5.1-3.6,10-5.8,14.6c-4.2,8.6-9.5,16.6-15.4,24.2c-1.2,1.6-2.5,3.2-3.8,4.7C1299.3,422.5,1286.5,434.5,1273.1,445.8z"/>
		
			<linearGradient id="SVGID_00000076605018962703754350000004970343435730754721_" gradientUnits="userSpaceOnUse" x1="1311.826" y1="429.1057" x2="1461.24" y2="429.1057">
			<stop  offset="0" style="stop-color:#ED1C24"/>
			<stop  offset="1" style="stop-color:#F7941D"/>
		</linearGradient>
		<path style="fill:url(#SVGID_00000076605018962703754350000004970343435730754721_);" d="M1346.5,290.2c6.8,4,13.4,8.4,19.6,13.2
			c14.6,11.3,27.1,24.4,36.1,40.7c9.9,17.9,13.6,37.2,12.4,57.4c-0.9,16-5,31.3-10.9,46.1c-3.2,8.1-6.9,15.9-11.1,23.5
			c-6.6,12.1-14.1,23.6-22.3,34.8c-13.8,18.9-29.9,35.8-46.7,51.9c-2.3,2.2-4.7,4.2-7.2,6.3c-1,0.8-1.9,1.6-2.9,2.5
			c-0.8,0.7-2.2,1.3-1.8,2.7c0.4,1.2,1.9,0.7,2.9,0.7h5.6c10.5,0,21.1,0,31.6,0c12.2,0,24.5,0,36.7,0c2,0,3.7-0.6,5.3-1.9
			c14.6-11.8,27.1-25.4,37.5-40.7c3.2-4.7,6.3-9.7,9.1-14.8c9.8-17.6,16.5-36.4,19.2-56.4c3.2-23.6,0.9-46.7-7.9-69
			c-7.7-19.5-19.4-36.4-34.2-51.2c-15.4-15.4-33-27.9-52.1-38.4c-5.5-3-10.9-5.9-16.6-8.5c-0.6-0.3-1.1-0.6-1.7-0.8
			c-0.7-0.2-1.6-1-2,0.1C1345.1,289.4,1345.9,289.9,1346.5,290.2z"/>
		<path class="st13" d="M327,452.7c0.8,3,2.2,4.6,5.5,4.9c13,1.4,26,3.1,39,4.6c2.8,0.3,4.8,1.3,6.1,3.9
			c11.2,21.5,24.6,41.4,40.8,59.4c2,2.2,2.3,4.2,1.4,7c-3.6,12.1-7,24.2-10.6,36.3c-0.7,2.5-1,4.6,1.4,6.5
			c18.8,14.2,37.6,28.5,56.4,42.8c1.6,1.2,3.1,1.7,4.8,0.3c9.8-8.1,21-14.6,29.7-24.1c2.4-2.6,4.3-3.1,7.5-1.6
			c18.5,8.3,37.7,14.4,57.9,17.2c2.8,0.4,4.1,2.2,5.2,4.5c6,12.5,12.1,25,18.1,37.6c3.4,7.1,3.5,7,11,6.2
			c14.8-1.6,29.6-2.9,44.3-4.8c5.9-0.8,12.4,0.4,17.7-3.9c6.7-5.4,13.5-10.6,20.4-15.7c2.3-1.7,3.3-3.5,3-6.5
			c-1.2-11.2-2-22.5-3.1-33.8c-0.3-3.5,0.4-6,3.6-8.1c6.2-4.1,12.2-8.5,17.9-13.3c4.3-3.7,7.8-4.1,12.9-1.3
			c11,6.1,22.4,11.6,33.6,17.3c2,1,3.8,2.4,6.2,0.6c14.4-10.4,29-20.6,35.9-38.2c0,0-82.3-71.4-82.3-71.4
			c-4.2,10.7-12.6,20.1-19.7,28.9c-8.8,10.8-16.5,20.6-29.9,25.7c-15.3,5.9-31.5,9.2-47.9,9c-29.2,0.3-55.6-7.7-80.5-21
			c-23.7-12.6-44.1-29.4-61.2-50c-33.9-41-52.8-87.3-49.9-141.4c1.1-21.5,7-42.8,17.3-61.7c6.3-11.7,14-22,24.3-30.4
			c12.4-10.1,26.7-21.4,40.9-28.6c7.9-4,15.3-2.3,23.9-2.3c12.7,0,25.4,0,38.1,0c25.4,0,50.8,0,76.2,0c25.5,0,51,0.2,76.6,0.4
			c2.6,0,4.1-0.9,4.5-3.3c0.5-2.8,3.1-5.7-0.4-8.4c-18.8-14.2-37.6-28.5-56.4-42.8c-1.7-1.3-3.3-1.9-5.2-0.3
			c-9.7,7.8-20.4,14.3-29,23.4c-2.7,2.9-5,3.5-8.8,1.7c-18.2-8.3-37.2-14-57-16.8c-3.1-0.4-4.4-2.3-5.5-4.7
			c-6.1-12.7-12.4-25.3-18.1-38.1c-2.2-4.9-5.2-6.1-10.2-5.4c-14.7,1.8-29.6,3-44.3,4.8c-6,0.8-12.4-0.3-17.7,3.8
			c-6.9,5.3-13.8,10.7-20.8,15.9c-2.3,1.7-3.2,3.8-3,6.6c1.2,11.7,2.1,23.5,3.3,35.2c0.3,2.6-0.4,4.2-2.5,5.7
			c-7.1,5.1-14.2,10.2-21,15.6c-3.1,2.4-5.5,2.9-9.1,0.9c-11-5.9-22.2-11.2-33.1-17.2c-4.7-2.6-8.3-2.8-12.5,1
			c-5.7,5-11.9,9.4-18,14c-2,1.5-3.6,3.2-4.8,5.4c-9.4,16.4-18.7,32.9-28.2,49.2c-1.8,3.2-1.7,5.4,0.9,8.1
			c10.2,10.6,20.1,21.5,30.2,32.1c2.4,2.5,3.1,4.7,2.2,8.1c-4.5,17.3-6.4,34.9-5.8,52.8c0.1,2.8-1.4,3.6-3.5,4.4
			c-4.4,1.7-9.1,2.5-12.9,5.4c-7.2,5.5-14.3,11.1-21.6,16.5c-2.5,1.8-3.1,3.6-2.2,6.6C315,409.4,321,431.1,327,452.7z"/>
	</g>
	<g>
		<path class="st13" d="M535.2,905.1v9.8h-13.3v40.3h-12.2v-40.3h-13.3v-9.8H535.2z"/>
		<path class="st13" d="M575.4,955.1L565,936.2h-2.9v18.9h-12.2v-50h20.5c3.9,0,7.3,0.7,10.1,2.1c2.8,1.4,4.9,3.3,6.2,5.7
			c1.4,2.4,2.1,5.1,2.1,8c0,3.3-0.9,6.3-2.8,8.9c-1.9,2.6-4.6,4.5-8.3,5.6l11.5,19.8H575.4z M562.1,927.6h7.6c2.2,0,3.9-0.5,5-1.6
			c1.1-1.1,1.7-2.6,1.7-4.6c0-1.9-0.6-3.4-1.7-4.5c-1.1-1.1-2.8-1.6-5-1.6h-7.6V927.6z"/>
		<path class="st13" d="M616.9,905.1V935c0,3,0.7,5.3,2.2,6.9c1.5,1.6,3.6,2.4,6.5,2.4c2.9,0,5-0.8,6.6-2.4c1.5-1.6,2.3-3.9,2.3-6.9
			v-29.9h12.2V935c0,4.5-1,8.2-2.9,11.3c-1.9,3.1-4.5,5.4-7.7,7c-3.2,1.6-6.8,2.4-10.7,2.4c-3.9,0-7.5-0.8-10.6-2.3
			c-3.1-1.5-5.6-3.9-7.4-7c-1.8-3.1-2.7-6.9-2.7-11.4v-29.9H616.9z"/>
		<path class="st13" d="M664.8,916.8c2.1-3.9,5.1-6.9,8.9-9.1c3.8-2.2,8.2-3.2,13-3.2c5.9,0,11,1.6,15.3,4.7
			c4.2,3.1,7.1,7.4,8.5,12.8h-13.4c-1-2.1-2.4-3.7-4.2-4.8c-1.8-1.1-3.9-1.6-6.2-1.6c-3.8,0-6.8,1.3-9.1,3.9
			c-2.3,2.6-3.5,6.1-3.5,10.5c0,4.4,1.2,7.9,3.5,10.5c2.3,2.6,5.4,3.9,9.1,3.9c2.3,0,4.4-0.5,6.2-1.6c1.8-1.1,3.2-2.7,4.2-4.8h13.4
			c-1.4,5.4-4.3,9.7-8.5,12.8c-4.2,3.1-9.3,4.7-15.3,4.7c-4.8,0-9.2-1.1-13-3.2c-3.8-2.2-6.8-5.2-8.9-9c-2.1-3.8-3.2-8.2-3.2-13.2
			C661.6,925.1,662.7,920.7,664.8,916.8z"/>
		<path class="st13" d="M755.6,955.1L738.8,933v22.1h-12.2v-50h12.2v22l16.7-22h14.3l-19.4,24.5l20.1,25.5H755.6z"/>
		<path class="st13" d="M844.6,929.2c-1.3,2.4-3.4,4.3-6.1,5.8c-2.8,1.5-6.2,2.2-10.3,2.2h-7.6v18h-12.2v-50h19.7
			c4,0,7.4,0.7,10.1,2.1c2.8,1.4,4.8,3.3,6.2,5.7c1.4,2.4,2.1,5.2,2.1,8.3C846.6,924.1,845.9,926.8,844.6,929.2z M832.5,925.8
			c1.1-1.1,1.7-2.6,1.7-4.6c0-2-0.6-3.5-1.7-4.6c-1.1-1.1-2.9-1.6-5.2-1.6h-6.6v12.5h6.6C829.6,927.5,831.3,926.9,832.5,925.8z"/>
		<path class="st13" d="M892.6,946.3H874l-3,8.8h-12.8l18.1-50h14.1l18.1,50h-12.9L892.6,946.3z M889.5,936.9l-6.2-18.3l-6.1,18.3
			H889.5z"/>
		<path class="st13" d="M948.1,955.1l-10.4-18.9h-2.9v18.9h-12.2v-50H943c3.9,0,7.3,0.7,10.1,2.1c2.8,1.4,4.9,3.3,6.2,5.7
			c1.4,2.4,2.1,5.1,2.1,8c0,3.3-0.9,6.3-2.8,8.9c-1.9,2.6-4.6,4.5-8.3,5.6l11.5,19.8H948.1z M934.8,927.6h7.6c2.2,0,3.9-0.5,5-1.6
			c1.1-1.1,1.7-2.6,1.7-4.6c0-1.9-0.6-3.4-1.7-4.5c-1.1-1.1-2.8-1.6-5-1.6h-7.6V927.6z"/>
		<path class="st13" d="M1013.6,905.1v9.8h-13.3v40.3h-12.2v-40.3h-13.3v-9.8H1013.6z"/>
		<path class="st13" d="M1036.5,953.9c-2.9-1.2-5.2-2.9-6.9-5.3c-1.7-2.3-2.6-5.1-2.7-8.4h13c0.2,1.9,0.8,3.3,1.9,4.2
			c1.1,1,2.5,1.5,4.3,1.5c1.8,0,3.2-0.4,4.3-1.2c1-0.8,1.6-2,1.6-3.5c0-1.2-0.4-2.3-1.2-3.1c-0.8-0.8-1.9-1.5-3.1-2
			c-1.2-0.5-2.9-1.1-5.2-1.8c-3.2-1-5.9-2-7.9-3c-2-1-3.8-2.5-5.3-4.4c-1.5-1.9-2.2-4.5-2.2-7.6c0-4.7,1.7-8.3,5.1-10.9
			c3.4-2.6,7.8-4,13.2-4c5.5,0,10,1.3,13.3,4c3.4,2.6,5.2,6.3,5.4,11h-13.2c-0.1-1.6-0.7-2.9-1.8-3.8c-1.1-0.9-2.5-1.4-4.2-1.4
			c-1.5,0-2.7,0.4-3.6,1.2c-0.9,0.8-1.4,1.9-1.4,3.4c0,1.6,0.8,2.9,2.3,3.8c1.5,0.9,3.9,1.9,7.1,2.9c3.2,1.1,5.9,2.1,7.9,3.1
			c2,1,3.8,2.4,5.2,4.3c1.5,1.9,2.2,4.3,2.2,7.3c0,2.9-0.7,5.4-2.2,7.8c-1.5,2.3-3.6,4.2-6.3,5.6c-2.8,1.4-6,2.1-9.8,2.1
			C1042.7,955.6,1039.4,955,1036.5,953.9z"/>
		<path class="st13" d="M1116.5,945.7h16v9.4h-28.2v-50h12.2V945.7z"/>
		<path class="st13" d="M1159,905.1v50h-12.2v-50H1159z"/>
		<path class="st13" d="M1233.1,905.1v50h-12.2v-30l-11.2,30h-9.8l-11.3-30.1v30.1h-12.2v-50h14.4l14,34.6l13.9-34.6H1233.1z"/>
		<path class="st13" d="M1262.6,905.1v50h-12.2v-50H1262.6z"/>
		<path class="st13" d="M1316,905.1v9.8h-13.3v40.3h-12.2v-40.3h-13.3v-9.8H1316z"/>
		<path class="st13" d="M1342.9,914.9V925h16.3v9.4h-16.3v11h18.5v9.8h-30.6v-50h30.6v9.8H1342.9z"/>
		<path class="st13" d="M1410.4,908.2c3.9,2.1,7,5,9.2,8.8c2.2,3.8,3.2,8.1,3.2,13.1c0,4.9-1.1,9.2-3.2,13c-2.2,3.8-5.2,6.7-9.2,8.8
			c-4,2.1-8.6,3.1-13.8,3.1h-18.7v-50h18.7C1401.8,905.1,1406.4,906.1,1410.4,908.2z M1406.5,940.8c2.6-2.5,3.8-6.1,3.8-10.7
			c0-4.6-1.3-8.2-3.8-10.8c-2.6-2.6-6.2-3.8-10.8-3.8h-5.8v29.1h5.8C1400.4,944.6,1403.9,943.3,1406.5,940.8z"/>
	</g>
</g>
</svg>
